<mxfile host="app.diagrams.net" modified="2022-09-22T05:57:34.247Z" agent="5.0 (Macintosh; Intel Mac OS X 10_15_7) AppleWebKit/537.36 (KHTML, like Gecko) Chrome/93.0.4530.0 Safari/537.36" etag="YMevsA5Piq8oVtYD0XMh" version="20.3.3" type="github">
  <diagram id="V6zpnEEcX5ZoLXUb0vcb" name="Page-1">
    <mxGraphModel dx="2066" dy="1161" grid="1" gridSize="10" guides="1" tooltips="1" connect="1" arrows="1" fold="1" page="1" pageScale="1" pageWidth="850" pageHeight="1100" math="0" shadow="0">
      <root>
        <mxCell id="0" />
        <mxCell id="1" parent="0" />
      </root>
    </mxGraphModel>
  </diagram>
</mxfile>
